<svg width="18" height="22" viewBox="0 0 18 22" fill="none" xmlns="http://www.w3.org/2000/svg">
<g id="Group">
<path id="Vector" d="M9.59417 21.2584L9.58217 21.2604L9.51117 21.2954L9.49117 21.2994L9.47717 21.2954L9.40617 21.2594C9.39551 21.2568 9.3875 21.2588 9.38217 21.2654L9.37817 21.2754L9.36117 21.7034L9.36617 21.7234L9.37617 21.7364L9.48017 21.8104L9.49517 21.8144L9.50717 21.8104L9.61117 21.7364L9.62317 21.7204L9.62717 21.7034L9.61017 21.2764C9.6075 21.2658 9.60217 21.2598 9.59417 21.2584ZM9.85817 21.1454L9.84417 21.1474L9.66017 21.2404L9.65017 21.2504L9.64717 21.2614L9.66517 21.6914L9.67017 21.7034L9.67817 21.7114L9.87917 21.8034C9.89184 21.8068 9.9015 21.8041 9.90817 21.7954L9.91217 21.7814L9.87817 21.1674C9.87484 21.1548 9.86817 21.1474 9.85817 21.1454ZM9.14317 21.1474C9.13876 21.1448 9.1335 21.1439 9.12847 21.145C9.12344 21.1461 9.11903 21.1491 9.11617 21.1534L9.11017 21.1674L9.07617 21.7814C9.07684 21.7934 9.08251 21.8014 9.09317 21.8054L9.10817 21.8034L9.30917 21.7104L9.31917 21.7024L9.32217 21.6914L9.34017 21.2614L9.33717 21.2494L9.32717 21.2394L9.14317 21.1474Z" fill="#C4C5D0"/>
<path id="Vector_2" d="M9.00017 0C7.14366 0 5.36318 0.737498 4.05043 2.05025C2.73767 3.36301 2.00017 5.14348 2.00017 7V10.528C2.00032 10.6831 1.96437 10.8362 1.89517 10.975L0.178175 14.408C0.0943009 14.5757 0.0546966 14.7621 0.063123 14.9494C0.0715494 15.1368 0.127727 15.3188 0.22632 15.4783C0.324912 15.6379 0.462647 15.7695 0.626441 15.8608C0.790236 15.9521 0.974652 16 1.16217 16H16.8382C17.0257 16 17.2101 15.9521 17.3739 15.8608C17.5377 15.7695 17.6754 15.6379 17.774 15.4783C17.8726 15.3188 17.9288 15.1368 17.9372 14.9494C17.9457 14.7621 17.906 14.5757 17.8222 14.408L16.1062 10.975C16.0366 10.8362 16.0003 10.6832 16.0002 10.528V7C16.0002 5.14348 15.2627 3.36301 13.9499 2.05025C12.6372 0.737498 10.8567 0 9.00017 0ZM9.00017 19C8.37952 19.0003 7.77405 18.8081 7.26719 18.4499C6.76034 18.0917 6.37706 17.5852 6.17017 17H11.8302C11.6233 17.5852 11.24 18.0917 10.7332 18.4499C10.2263 18.8081 9.62083 19.0003 9.00017 19Z" fill="#E6E6E6"/>
</g>
</svg>
