<svg width="24" height="24" viewBox="0 0 24 24" fill="none" xmlns="http://www.w3.org/2000/svg">
<g id="mdi:sword-cross">
<path id="Vector" d="M6.20012 2.44141L18.1001 14.3414L20.2201 12.2214L21.6301 13.6314L19.1601 16.1014L22.3401 19.2814C22.7301 19.6714 22.7301 20.3014 22.3401 20.6914L21.6301 21.4014C21.5376 21.4941 21.4277 21.5677 21.3067 21.6178C21.1858 21.668 21.0561 21.6938 20.9251 21.6938C20.7942 21.6938 20.6645 21.668 20.5435 21.6178C20.4225 21.5677 20.3126 21.4941 20.2201 21.4014L17.0001 18.2314L14.5601 20.7014L13.1501 19.2914L15.2701 17.1714L3.37012 5.27141V2.44141H6.20012ZM15.8901 10.0014L20.6301 5.26141V2.44141H17.8001L13.0601 7.18141L15.8901 10.0014ZM10.9401 15.0014L8.11012 12.1314L5.90012 14.3414L3.78012 12.2214L2.37012 13.6314L4.84012 16.1014L1.66012 19.2914C1.56742 19.3839 1.49387 19.4938 1.44369 19.6148C1.39351 19.7358 1.36768 19.8654 1.36768 19.9964C1.36768 20.1274 1.39351 20.2571 1.44369 20.378C1.49387 20.499 1.56742 20.6089 1.66012 20.7014L2.37012 21.4114C2.76012 21.8014 3.39012 21.8014 3.78012 21.4114L7.00012 18.2314L9.44012 20.7014L10.8501 19.2914L8.73012 17.1714L10.9401 15.0014Z" fill="#325FEB"/>
</g>
</svg>
