<svg width="20" height="22" viewBox="0 0 20 22" fill="none" xmlns="http://www.w3.org/2000/svg">
<g id="Group">
<path id="Vector" d="M10.5932 21.2545L10.5822 21.2565L10.5112 21.2915L10.4912 21.2955L10.4772 21.2915L10.4062 21.2565C10.3955 21.2532 10.3875 21.2549 10.3822 21.2615L10.3782 21.2715L10.3612 21.6995L10.3662 21.7195L10.3762 21.7325L10.4802 21.8065L10.4952 21.8105L10.5072 21.8065L10.6112 21.7325L10.6232 21.7165L10.6272 21.6995L10.6102 21.2725C10.6075 21.2619 10.6018 21.2559 10.5932 21.2545ZM10.8582 21.1415L10.8452 21.1435L10.6602 21.2365L10.6502 21.2465L10.6472 21.2575L10.6652 21.6875L10.6702 21.6995L10.6782 21.7065L10.8792 21.7995C10.8918 21.8029 10.9015 21.8002 10.9082 21.7915L10.9122 21.7775L10.8782 21.1635C10.8748 21.1515 10.8682 21.1442 10.8582 21.1415ZM10.1432 21.1435C10.1388 21.1408 10.1335 21.14 10.1285 21.1411C10.1234 21.1422 10.119 21.1452 10.1162 21.1495L10.1102 21.1635L10.0762 21.7775C10.0768 21.7895 10.0825 21.7975 10.0932 21.8015L10.1082 21.7995L10.3092 21.7065L10.3192 21.6985L10.3232 21.6875L10.3402 21.2575L10.3372 21.2455L10.3272 21.2355L10.1432 21.1435Z" fill="url(#paint0_linear_31664_4238)"/>
<path id="Vector_2" d="M10 0C15.523 0 20 4.477 20 10C20 15.523 15.523 20 10 20C4.477 20 0 15.523 0 10C0 4.477 4.477 0 10 0ZM10 14C9.73478 14 9.48043 14.1054 9.29289 14.2929C9.10536 14.4804 9 14.7348 9 15C9 15.2652 9.10536 15.5196 9.29289 15.7071C9.48043 15.8946 9.73478 16 10 16C10.2652 16 10.5196 15.8946 10.7071 15.7071C10.8946 15.5196 11 15.2652 11 15C11 14.7348 10.8946 14.4804 10.7071 14.2929C10.5196 14.1054 10.2652 14 10 14ZM10 4.5C9.03859 4.5 8.11656 4.88192 7.43674 5.56174C6.75692 6.24156 6.375 7.16359 6.375 8.125C6.375 8.39022 6.48036 8.64457 6.66789 8.83211C6.85543 9.01964 7.10978 9.125 7.375 9.125C7.64022 9.125 7.89457 9.01964 8.08211 8.83211C8.26964 8.64457 8.375 8.39022 8.375 8.125C8.37533 7.83004 8.45594 7.54072 8.60818 7.28809C8.76043 7.03545 8.97856 6.82902 9.2392 6.69092C9.49984 6.55282 9.79316 6.48827 10.0877 6.50419C10.3822 6.52011 10.6669 6.61589 10.9111 6.78127C11.1553 6.94666 11.35 7.1754 11.4741 7.44297C11.5982 7.71054 11.6472 8.00686 11.6157 8.30014C11.5843 8.59342 11.4736 8.87261 11.2955 9.10777C11.1175 9.34292 10.8788 9.52518 10.605 9.635C9.929 9.905 9 10.597 9 11.75V12C9 12.2652 9.10536 12.5196 9.29289 12.7071C9.48043 12.8946 9.73478 13 10 13C10.2652 13 10.5196 12.8946 10.7071 12.7071C10.8946 12.5196 11 12.2652 11 12C11 11.756 11.05 11.634 11.261 11.53L11.348 11.49C12.1288 11.1759 12.776 10.6 13.1787 9.86092C13.5814 9.12188 13.7145 8.26578 13.5551 7.43938C13.3958 6.61299 12.9539 5.86776 12.3052 5.33147C11.6566 4.79518 10.8416 4.50122 10 4.5Z" fill="url(#paint1_linear_31664_4238)"/>
</g>
<defs>
<linearGradient id="paint0_linear_31664_4238" x1="11.2817" y1="21.3105" x2="11.698" y2="20.7129" gradientUnits="userSpaceOnUse">
<stop stop-color="#325FEB"/>
<stop offset="0.0625" stop-color="#3763EB"/>
<stop offset="0.125" stop-color="#3C67EC"/>
<stop offset="0.1875" stop-color="#406AEC"/>
<stop offset="0.25" stop-color="#446DED"/>
<stop offset="0.3125" stop-color="#4870ED"/>
<stop offset="0.375" stop-color="#4B73ED"/>
<stop offset="0.4375" stop-color="#4E75EE"/>
<stop offset="0.5" stop-color="#5177EE"/>
<stop offset="0.5625" stop-color="#5379EE"/>
<stop offset="0.625" stop-color="#557BEE"/>
<stop offset="0.6875" stop-color="#577CEF"/>
<stop offset="0.75" stop-color="#587DEF"/>
<stop offset="0.8125" stop-color="#5A7EEF"/>
<stop offset="0.875" stop-color="#5A7FEF"/>
<stop offset="0.9375" stop-color="#5B7FEF"/>
<stop offset="1" stop-color="#5B7FEF"/>
</linearGradient>
<linearGradient id="paint1_linear_31664_4238" x1="28.8415" y1="5.07154" x2="41.9627" y2="-10.0227" gradientUnits="userSpaceOnUse">
<stop stop-color="#325FEB"/>
<stop offset="0.0625" stop-color="#3763EB"/>
<stop offset="0.125" stop-color="#3C67EC"/>
<stop offset="0.1875" stop-color="#406AEC"/>
<stop offset="0.25" stop-color="#446DED"/>
<stop offset="0.3125" stop-color="#4870ED"/>
<stop offset="0.375" stop-color="#4B73ED"/>
<stop offset="0.4375" stop-color="#4E75EE"/>
<stop offset="0.5" stop-color="#5177EE"/>
<stop offset="0.5625" stop-color="#5379EE"/>
<stop offset="0.625" stop-color="#557BEE"/>
<stop offset="0.6875" stop-color="#577CEF"/>
<stop offset="0.75" stop-color="#587DEF"/>
<stop offset="0.8125" stop-color="#5A7EEF"/>
<stop offset="0.875" stop-color="#5A7FEF"/>
<stop offset="0.9375" stop-color="#5B7FEF"/>
<stop offset="1" stop-color="#5B7FEF"/>
</linearGradient>
</defs>
</svg>
