<svg width="24" height="24" viewBox="0 0 24 24" fill="none" xmlns="http://www.w3.org/2000/svg">
<g id="material-symbols-light:settings-rounded">
<path id="Vector" d="M10.9598 21C10.7271 21 10.5254 20.9237 10.3548 20.771C10.1834 20.6183 10.0771 20.428 10.0358 20.2L9.77278 18.108C9.45344 18.0113 9.10811 17.86 8.73678 17.654C8.36611 17.4473 8.05044 17.226 7.78978 16.99L5.87478 17.814C5.66344 17.9073 5.44878 17.9173 5.23078 17.844C5.01278 17.7707 4.84478 17.6323 4.72678 17.429L3.64778 15.57C3.52978 15.3667 3.49511 15.154 3.54378 14.932C3.59244 14.71 3.70844 14.528 3.89178 14.386L5.56378 13.136C5.53378 12.9547 5.50944 12.7683 5.49078 12.577C5.47078 12.385 5.46078 12.1987 5.46078 12.018C5.46078 11.85 5.47078 11.6733 5.49078 11.488C5.50944 11.3027 5.53378 11.094 5.56378 10.862L3.89178 9.612C3.70844 9.47 3.59578 9.285 3.55378 9.057C3.51178 8.829 3.54944 8.613 3.66678 8.409L4.72678 6.609C4.84478 6.41767 5.01278 6.28234 5.23078 6.203C5.44878 6.12367 5.66344 6.13067 5.87478 6.224L7.77078 7.028C8.06944 6.77934 8.39278 6.555 8.74078 6.355C9.08744 6.155 9.42511 6.00034 9.75378 5.891L10.0368 3.799C10.0774 3.571 10.1834 3.38067 10.3548 3.228C10.5261 3.07534 10.7278 2.99934 10.9598 3H13.0398C13.2724 3 13.4741 3.07634 13.6448 3.229C13.8161 3.38167 13.9224 3.572 13.9638 3.8L14.2268 5.912C14.6101 6.04667 14.9488 6.201 15.2428 6.375C15.5368 6.549 15.8398 6.767 16.1518 7.029L18.1438 6.225C18.3558 6.13167 18.5708 6.12467 18.7888 6.204C19.0068 6.28334 19.1744 6.41867 19.2918 6.61L20.3518 8.429C20.4698 8.633 20.5044 8.84567 20.4558 9.067C20.4071 9.28834 20.2911 9.47067 20.1078 9.614L18.3598 10.92C18.4144 11.1267 18.4451 11.3163 18.4518 11.489C18.4584 11.6617 18.4618 11.8317 18.4618 11.999C18.4618 12.1543 18.4551 12.318 18.4418 12.49C18.4291 12.6627 18.3998 12.8713 18.3538 13.116L20.0438 14.386C20.2271 14.528 20.3464 14.71 20.4018 14.932C20.4571 15.154 20.4258 15.3667 20.3078 15.57L19.2418 17.409C19.1244 17.613 18.9534 17.7513 18.7288 17.824C18.5041 17.8973 18.2861 17.8873 18.0748 17.794L16.1518 16.97C15.8404 17.232 15.5271 17.4563 15.2118 17.643C14.8964 17.8297 14.5681 17.978 14.2268 18.088L13.9628 20.199C13.9221 20.427 13.8161 20.6173 13.6448 20.77C13.4734 20.9227 13.2718 20.9993 13.0398 21H10.9598ZM11.9728 14.5C12.6701 14.5 13.2611 14.2577 13.7458 13.773C14.2304 13.2883 14.4728 12.6973 14.4728 12C14.4728 11.3027 14.2304 10.7117 13.7458 10.227C13.2611 9.74234 12.6701 9.5 11.9728 9.5C11.2714 9.5 10.6794 9.74234 10.1968 10.227C9.71411 10.7117 9.47278 11.3027 9.47278 12C9.47278 12.6973 9.71411 13.2883 10.1968 13.773C10.6794 14.2577 11.2714 14.5 11.9728 14.5Z" fill="#C4C5D0"/>
</g>
</svg>
