<svg width="20" height="20" viewBox="0 0 20 20" fill="none" xmlns="http://www.w3.org/2000/svg">
<g id="tabler:coin-filled">
<path id="Vector" d="M14.1665 2.78064C15.4333 3.51205 16.4853 4.56404 17.2167 5.83087C17.9481 7.09771 18.3332 8.53476 18.3332 9.99757C18.3332 11.4604 17.9481 12.8974 17.2167 14.1643C16.4853 15.4311 15.4333 16.4831 14.1664 17.2145C12.8996 17.9458 11.4625 18.3309 9.99971 18.3309C8.53689 18.3308 7.09985 17.9458 5.83303 17.2143C4.56621 16.4829 3.51425 15.4309 2.78287 14.164C2.05149 12.8972 1.66647 11.4601 1.6665 9.99731L1.67067 9.72731C1.71734 8.28813 2.13613 6.88561 2.8862 5.65647C3.63628 4.42733 4.69205 3.41352 5.95058 2.71387C7.20911 2.01423 8.62746 1.65264 10.0673 1.66434C11.5072 1.67604 12.9195 2.06064 14.1665 2.78064ZM9.99984 4.99731C9.77882 4.99731 9.56686 5.0851 9.41058 5.24138C9.2543 5.39766 9.1665 5.60963 9.1665 5.83064C8.50346 5.83064 7.86758 6.09403 7.39874 6.56287C6.9299 7.03171 6.6665 7.6676 6.6665 8.33064C6.6665 8.99368 6.9299 9.62957 7.39874 10.0984C7.86758 10.5672 8.50346 10.8306 9.1665 10.8306V12.4973C9.0283 12.505 8.89032 12.4787 8.76455 12.4209C8.63878 12.3631 8.52903 12.2755 8.44484 12.1656L8.38817 12.0815C8.27416 11.8976 8.0931 11.7653 7.88329 11.7125C7.67347 11.6597 7.45135 11.6906 7.26389 11.7986C7.07643 11.9066 6.93833 12.0833 6.87879 12.2913C6.81924 12.4993 6.84293 12.7223 6.94484 12.9131C7.15754 13.282 7.46093 13.5905 7.82626 13.8092C8.19158 14.028 8.60673 14.1498 9.03234 14.1631H9.1665C9.16633 14.3674 9.24117 14.5646 9.37682 14.7173C9.51248 14.87 9.69949 14.9676 9.90234 14.9915L9.99984 14.9973C10.2209 14.9973 10.4328 14.9095 10.5891 14.7532C10.7454 14.5969 10.8332 14.385 10.8332 14.164L10.9798 14.1598C11.6295 14.1223 12.2389 13.8329 12.6786 13.3531C13.1183 12.8734 13.3536 12.2411 13.3345 11.5906C13.3154 10.9401 13.0434 10.3227 12.5764 9.86962C12.1093 9.41649 11.4839 9.16335 10.8332 9.16397V7.49731C11.1315 7.48731 11.3923 7.61397 11.5548 7.82897L11.6115 7.91314C11.7255 8.09701 11.9066 8.22934 12.1164 8.28213C12.3262 8.33492 12.5483 8.30405 12.7358 8.19603C12.9232 8.08801 13.0613 7.91132 13.1209 7.70333C13.1804 7.49533 13.1567 7.27232 13.0548 7.08147C12.8422 6.71243 12.5389 6.40382 12.1736 6.18491C11.8082 5.966 11.393 5.84406 10.9673 5.83064H10.8332C10.8332 5.60963 10.7454 5.39766 10.5891 5.24138C10.4328 5.0851 10.2209 4.99731 9.99984 4.99731ZM10.8332 10.8306C11.0542 10.8306 11.2661 10.9184 11.4224 11.0747C11.5787 11.231 11.6665 11.443 11.6665 11.664C11.6665 11.885 11.5787 12.0969 11.4224 12.2532C11.2661 12.4095 11.0542 12.4973 10.8332 12.4973V10.8306ZM9.1665 7.49731V9.16397C8.94549 9.16397 8.73353 9.07618 8.57725 8.9199C8.42097 8.76361 8.33317 8.55165 8.33317 8.33064C8.33317 8.10963 8.42097 7.89767 8.57725 7.74138C8.73353 7.5851 8.94549 7.49731 9.1665 7.49731Z" fill="#C4C5D0"/>
</g>
</svg>
