<svg width="20" height="20" viewBox="0 0 20 20" fill="none" xmlns="http://www.w3.org/2000/svg">
<g id="dashicons:games">
<path id="Vector" d="M15.8998 5.5C15.2998 4.5 14.1998 4 12.9998 4H6.99985C5.79985 4 4.69985 4.5 4.09985 5.5C1.79985 9 1.29985 14.3 2.89985 15.4C4.49985 16.5 8.09985 11.7 9.99985 11.7C11.8998 11.7 15.3998 16.5 17.0998 15.4C18.6999 14.3 18.1998 9 15.8998 5.5ZM7.99985 9H6.99985V10H5.99985V9H4.99985V8H5.99985V7H6.99985V8H7.99985V9ZM13.3998 9.5C13.3998 10 12.9998 10.4 12.4998 10.4C11.9998 10.4 11.5998 10 11.5998 9.5C11.5998 9 11.9998 8.6 12.4998 8.6C12.9998 8.6 13.3998 9 13.3998 9.5ZM15.2998 7.5C15.2998 8 14.8998 8.4 14.3998 8.4C13.8998 8.4 13.4998 8 13.4998 7.5C13.4998 7 13.8998 6.6 14.3998 6.6C14.8998 6.6 15.2998 7 15.2998 7.5Z" fill="#C4C5D0"/>
</g>
</svg>
