<svg width="20" height="20" viewBox="0 0 20 20" fill="none" xmlns="http://www.w3.org/2000/svg">
<g id="Group">
<path id="Vector" d="M18.3332 11.6641H11.6665V18.3307H18.3332V11.6641ZM5.4165 1.66406L9.1665 8.33073H1.6665L5.4165 1.66406ZM14.9998 8.33073C15.8839 8.33073 16.7317 7.97954 17.3569 7.35442C17.982 6.7293 18.3332 5.88145 18.3332 4.9974C18.3332 4.11334 17.982 3.26549 17.3569 2.64037C16.7317 2.01525 15.8839 1.66406 14.9998 1.66406C14.1158 1.66406 13.2679 2.01525 12.6428 2.64037C12.0177 3.26549 11.6665 4.11334 11.6665 4.9974C11.6665 5.88145 12.0177 6.7293 12.6428 7.35442C13.2679 7.97954 14.1158 8.33073 14.9998 8.33073Z" stroke="#E6E6E6" stroke-width="2" stroke-linejoin="round"/>
<path id="Vector_2" d="M1.6665 11.6641L8.33317 18.3307M8.33317 11.6641L1.6665 18.3307" stroke="#E6E6E6" stroke-width="2" stroke-linecap="round" stroke-linejoin="round"/>
</g>
</svg>
