<svg width="24" height="24" viewBox="0 0 24 24" fill="none" xmlns="http://www.w3.org/2000/svg">
<g id="users-icon">
<path d="M9 11C11.2091 11 13 9.20914 13 7C13 4.79086 11.2091 3 9 3C6.79086 3 5 4.79086 5 7C5 9.20914 6.79086 11 9 11Z" fill="#C4C5D0"/>
<path d="M9 13C5.96243 13 3.5 15.4624 3.5 18.5V21H14.5V18.5C14.5 15.4624 12.0376 13 9 13Z" fill="#C4C5D0"/>
<path d="M16.5 11C18.0124 11 19.25 9.76243 19.25 8.25C19.25 6.73757 18.0124 5.5 16.5 5.5C14.9876 5.5 13.75 6.73757 13.75 8.25C13.75 9.76243 14.9876 11 16.5 11Z" fill="#C4C5D0"/>
<path d="M16.3414 13C17.8658 13.4 19 14.8 19 16.5V21H20.5V16.5C20.5 14.2909 18.7091 12.5 16.5 12.5C16.4473 12.5 16.3947 12.5013 16.3424 12.5039" fill="#C4C5D0"/>
</g>
</svg> 