<svg width="121" height="19" viewBox="0 0 121 19" fill="none" xmlns="http://www.w3.org/2000/svg">
<path id="Vector" d="M0.5 18.6151V0.800781H4.27724V11.0613H5.30524L4.12186 11.6629L8.67606 6.15664H13.1346L6.93089 13.1551V11.0498L13.4096 18.6151H8.95098L4.07403 12.6924L5.30524 13.2939H4.27724V18.6151H0.5ZM19.4818 18.8001C18.2467 18.8001 17.1191 18.5264 16.0991 17.9788C15.087 17.4313 14.2782 16.6755 13.6725 15.7116C13.0749 14.7476 12.776 13.6371 12.776 12.3801C12.776 11.123 13.0749 10.0125 13.6725 9.04856C14.2782 8.08458 15.087 7.33267 16.0991 6.79285C17.1191 6.25303 18.2467 5.98313 19.4818 5.98313C20.7409 5.98313 21.8765 6.25303 22.8885 6.79285C23.9006 7.33267 24.7015 8.08458 25.2912 9.04856C25.8888 10.0125 26.1877 11.123 26.1877 12.3801C26.1877 13.6371 25.8888 14.7476 25.2912 15.7116C24.7015 16.6755 23.8966 17.4313 22.8766 17.9788C21.8646 18.5264 20.7329 18.8001 19.4818 18.8001ZM19.4818 15.6769C20.0716 15.6769 20.6015 15.5381 21.0716 15.2604C21.5418 14.9828 21.9124 14.5972 22.1833 14.1036C22.4542 13.6101 22.5897 13.0356 22.5897 12.3801C22.5897 11.7477 22.4582 11.1847 22.1953 10.6912C21.9323 10.1976 21.5697 9.81202 21.1075 9.53439C20.6453 9.24907 20.1114 9.10639 19.5057 9.10639C18.9081 9.10639 18.3702 9.24522 17.8921 9.52285C17.4219 9.79274 17.0513 10.1745 16.7804 10.6681C16.5095 11.1616 16.374 11.7323 16.374 12.3801C16.374 13.0356 16.5095 13.6101 16.7804 14.1036C17.0593 14.5972 17.4339 14.9828 17.904 15.2604C18.3742 15.5381 18.9001 15.6769 19.4818 15.6769ZM27.9806 18.6151V6.16822H31.6383V7.79926H32.2121L31.1362 9.09484C31.2956 8.41619 31.5946 7.84552 32.0328 7.38281C32.4789 6.9201 33.0129 6.57306 33.6347 6.34172C34.2562 6.10265 34.9215 5.98313 35.6308 5.98313C36.4913 5.98313 37.2324 6.17591 37.8542 6.56151C38.4757 6.94711 38.9537 7.47535 39.2885 8.14627C39.6232 8.81722 39.7906 9.59223 39.7906 10.4714V18.6151H36.0133V11.2696C36.0133 10.5215 35.83 9.9624 35.4634 9.59223C35.0968 9.21436 34.5989 9.02543 33.9692 9.02543C33.5548 9.02543 33.1803 9.11412 32.8455 9.29148C32.5111 9.46113 32.2439 9.71563 32.0447 10.055C31.8535 10.3865 31.758 10.803 31.758 11.3043V18.6151H27.9806ZM46.5441 18.8001C45.7791 18.8001 45.0459 18.6729 44.3449 18.4184C43.6515 18.1639 43.0379 17.8053 42.504 17.3426C41.97 16.8722 41.5676 16.3246 41.2968 15.7L44.261 14.4391C44.4602 14.8016 44.7592 15.1447 45.1576 15.4686C45.556 15.7926 46.0261 15.9545 46.568 15.9545C46.855 15.9545 47.106 15.9082 47.3211 15.8157C47.5362 15.7154 47.7036 15.5882 47.8232 15.4339C47.9505 15.2797 48.0145 15.1139 48.0145 14.9365C48.0145 14.7129 47.9227 14.5201 47.7394 14.3581C47.5561 14.1962 47.3211 14.0574 47.0344 13.9417C46.7473 13.826 46.4444 13.7258 46.1258 13.6409C45.8149 13.5561 45.5282 13.479 45.265 13.4096C44.6595 13.2322 44.0857 12.9893 43.5438 12.6808C43.0101 12.3646 42.5756 11.9636 42.2408 11.4778C41.9063 10.9919 41.7389 10.402 41.7389 9.70793C41.7389 8.97529 41.9342 8.33135 42.3246 7.7761C42.7231 7.21315 43.261 6.77357 43.9382 6.45739C44.6236 6.14121 45.4046 5.98313 46.2813 5.98313C47.3728 5.98313 48.3529 6.22605 49.2217 6.71189C50.0984 7.19772 50.7199 7.84167 51.0865 8.64368L48.1819 9.85831C48.0304 9.61154 47.8073 9.37247 47.5123 9.1411C47.2256 8.90976 46.859 8.79406 46.4126 8.79406C46.038 8.79406 45.7274 8.8866 45.4802 9.07169C45.2332 9.25677 45.1099 9.48814 45.1099 9.76576C45.1099 10.0434 45.2332 10.267 45.4802 10.4367C45.7274 10.6063 46.042 10.7529 46.4245 10.8763C46.807 10.9997 47.2054 11.1192 47.62 11.2349C47.9386 11.3197 48.3092 11.4431 48.7315 11.605C49.154 11.7593 49.5644 11.9713 49.9628 12.2413C50.3692 12.5112 50.704 12.8582 50.9668 13.2823C51.2379 13.7065 51.3732 14.227 51.3732 14.844C51.3732 15.6229 51.1501 16.3131 50.704 16.9146C50.2655 17.5084 49.6798 17.9711 48.9469 18.3027C48.2216 18.6343 47.4208 18.8001 46.5441 18.8001ZM59.2146 18.8001C57.9795 18.8001 56.8519 18.5264 55.832 17.9788C54.8197 17.4313 54.0109 16.6755 53.4054 15.7116C52.8077 14.7476 52.5088 13.6371 52.5088 12.3801C52.5088 11.123 52.8077 10.0125 53.4054 9.04856C54.0109 8.08458 54.8197 7.33267 55.832 6.79285C56.8519 6.25303 57.9795 5.98313 59.2146 5.98313C60.4738 5.98313 61.6094 6.25303 62.6213 6.79285C63.6333 7.33267 64.4344 8.08458 65.0241 9.04856C65.6217 10.0125 65.9203 11.123 65.9203 12.3801C65.9203 13.6371 65.6217 14.7476 65.0241 15.7116C64.4344 16.6755 63.6293 17.4313 62.6094 17.9788C61.5974 18.5264 60.4658 18.8001 59.2146 18.8001ZM59.2146 15.6769C59.8042 15.6769 60.3342 15.5381 60.8046 15.2604C61.2746 14.9828 61.6452 14.5972 61.916 14.1036C62.1871 13.6101 62.3226 13.0356 62.3226 12.3801C62.3226 11.7477 62.1911 11.1847 61.9279 10.6912C61.665 10.1976 61.3024 9.81202 60.8404 9.53439C60.378 9.24907 59.8443 9.10639 59.2384 9.10639C58.6408 9.10639 58.1028 9.24522 57.6249 9.52285C57.1545 9.79274 56.7843 10.1745 56.5131 10.6681C56.2423 11.1616 56.1068 11.7323 56.1068 12.3801C56.1068 13.0356 56.2423 13.6101 56.5131 14.1036C56.7922 14.5972 57.1668 14.9828 57.6368 15.2604C58.1068 15.5381 58.6328 15.6769 59.2146 15.6769ZM71.1561 18.8001C70.407 18.8001 69.7772 18.642 69.2674 18.3259C68.7653 18.002 68.3867 17.5778 68.1318 17.0534C67.8769 16.529 67.7493 15.9506 67.7493 15.3183V0.800781H71.5267V14.763C71.5267 14.9635 71.5545 15.137 71.6102 15.2836C71.6659 15.4224 71.7537 15.5342 71.873 15.619C71.9927 15.6961 72.1601 15.7347 72.3752 15.7347C72.5028 15.7347 72.6062 15.7231 72.6861 15.7C72.7736 15.6769 72.8455 15.6576 72.9012 15.6421V18.5109C72.6702 18.5958 72.3991 18.6652 72.0885 18.7192C71.7855 18.7732 71.4746 18.8001 71.1561 18.8001ZM80.7784 18.7539C79.8301 18.7539 78.9375 18.5919 78.1009 18.268C77.2642 17.9364 76.5271 17.4814 75.8894 16.9031C75.252 16.3246 74.7538 15.646 74.3954 14.8671C74.0368 14.0882 73.8575 13.2476 73.8575 12.3454C73.8575 11.4508 74.0328 10.6179 74.3835 9.84673C74.7339 9.07557 75.2201 8.40077 75.8416 7.82239C76.4711 7.24401 77.1963 6.79285 78.0173 6.46897C78.838 6.14506 79.7144 5.98313 80.6468 5.98313C81.38 5.98313 82.0893 6.08337 82.7745 6.28389C83.4599 6.4844 84.0774 6.76587 84.6273 7.12831L83.2408 10.0665C83.0177 9.87373 82.7745 9.70793 82.5116 9.5691C82.2567 9.4303 81.9776 9.32618 81.675 9.25677C81.38 9.17966 81.0694 9.1411 80.7426 9.1411C80.0571 9.1411 79.4675 9.28763 78.9736 9.58068C78.4873 9.87373 78.1128 10.2632 77.8499 10.749C77.5868 11.2272 77.4555 11.7554 77.4555 12.3338C77.4555 12.943 77.5947 13.4944 77.8738 13.988C78.1605 14.4815 78.547 14.8748 79.0332 15.1679C79.5271 15.4532 80.089 15.5959 80.7187 15.5959C81.2444 15.5959 81.7466 15.5072 82.2249 15.3298C82.7029 15.1525 83.0575 14.9596 83.2886 14.7514L84.6393 17.7475C84.1852 18.0174 83.6233 18.2526 82.9538 18.4531C82.2846 18.6536 81.5593 18.7539 80.7784 18.7539ZM89.588 18.8001C88.8389 18.8001 88.2094 18.642 87.6993 18.3259C87.1975 18.002 86.8189 17.5778 86.5637 17.0534C86.3088 16.529 86.1812 15.9506 86.1812 15.3183V0.800781H89.9585V14.763C89.9585 14.9635 89.9864 15.137 90.0421 15.2836C90.0981 15.4224 90.1856 15.5342 90.3052 15.619C90.4246 15.6961 90.592 15.7347 90.8071 15.7347C90.9347 15.7347 91.0384 15.7231 91.118 15.7C91.2058 15.6769 91.2774 15.6576 91.3331 15.6421V18.5109C91.1021 18.5958 90.8313 18.6652 90.5204 18.7192C90.2174 18.7732 89.9068 18.8001 89.588 18.8001ZM97.776 18.8001C96.8914 18.8001 96.0866 18.6189 95.3614 18.2565C94.6361 17.8863 94.0584 17.3465 93.6281 16.637C93.2059 15.9198 92.9947 15.0368 92.9947 13.988V6.16822H96.772V13.5021C96.772 14.2193 96.9633 14.7669 97.3458 15.1447C97.7363 15.5149 98.2103 15.7 98.7681 15.7C99.1824 15.7 99.545 15.6113 99.8559 15.4339C100.174 15.2566 100.422 15.0059 100.597 14.6821C100.78 14.3504 100.872 13.9571 100.872 13.5021V6.16822H104.649V14.254C104.649 14.7013 104.717 15.0252 104.852 15.2257C104.988 15.4262 105.263 15.5997 105.677 15.7463L104.338 18.8001C103.39 18.5611 102.697 18.2487 102.258 17.8631C101.82 17.4776 101.593 16.9763 101.577 16.3594L102.378 17.1922H100.776L102.533 16.1396C102.015 16.9185 101.354 17.5585 100.549 18.0598C99.7443 18.5534 98.8198 18.8001 97.776 18.8001ZM107.458 18.6151V0.800781H111.235V7.23243H111.522L110.984 9.17581V15.9545L111.57 17.2154H111.056V18.6151H107.458ZM114.893 18.8001C113.809 18.8001 112.837 18.5071 111.976 17.921C111.116 17.3272 110.435 16.5367 109.932 15.5496C109.431 14.5625 109.175 13.4713 109.167 12.276C109.175 11.1115 109.419 10.055 109.897 9.10639C110.375 8.15015 111.032 7.38666 111.869 6.81598C112.714 6.24533 113.686 5.95997 114.786 5.95997C115.75 5.95997 116.67 6.20289 117.547 6.68876C118.431 7.1746 119.149 7.89565 119.699 8.8519C120.248 9.80817 120.515 10.9997 120.499 12.4263C120.507 13.506 120.352 14.4468 120.033 15.2489C119.714 16.0432 119.284 16.7025 118.742 17.2269C118.2 17.7513 117.594 18.1447 116.925 18.4069C116.256 18.669 115.578 18.8001 114.893 18.8001ZM114.009 15.7463C114.567 15.7386 115.056 15.5959 115.479 15.3183C115.901 15.0406 116.232 14.6473 116.471 14.1384C116.71 13.6294 116.825 13.0356 116.817 12.3569C116.825 11.6629 116.706 11.069 116.459 10.5755C116.22 10.0742 115.881 9.6925 115.443 9.4303C115.005 9.16038 114.503 9.02928 113.937 9.03698C113.403 9.02928 112.925 9.15653 112.503 9.41872C112.08 9.68092 111.745 10.0627 111.499 10.5639C111.251 11.0575 111.128 11.6552 111.128 12.3569C111.128 13.0356 111.251 13.6294 111.499 14.1384C111.753 14.6473 112.096 15.0406 112.526 15.3183C112.957 15.5959 113.451 15.7386 114.009 15.7463Z" fill="white"/>
</svg>
