<svg width="20" height="16" viewBox="0 0 20 16" fill="none" xmlns="http://www.w3.org/2000/svg">
<path id="Logo" d="M16.9566 1.42807C19.2154 4.76961 20.3309 8.53878 19.9139 12.8779C19.9121 12.8963 19.9026 12.9132 19.8876 12.9242C18.1771 14.188 16.5199 14.955 14.8859 15.4636C14.8732 15.4675 14.8596 15.4673 14.847 15.463C14.8344 15.4587 14.8234 15.4506 14.8157 15.4397C14.4382 14.9112 14.0952 14.354 13.7947 13.7689C13.7774 13.7345 13.7932 13.693 13.8287 13.6794C14.3734 13.4729 14.8914 13.2253 15.3897 12.9323C15.4289 12.9091 15.4314 12.8525 15.3952 12.8254C15.2894 12.7464 15.1847 12.6634 15.0844 12.5804C15.0657 12.565 15.0404 12.562 15.0192 12.5723C11.7844 14.0753 8.24091 14.0753 4.96792 12.5723C4.94667 12.5628 4.92142 12.566 4.90317 12.5811C4.80317 12.6641 4.69817 12.7464 4.59342 12.8254C4.55717 12.8525 4.56017 12.9091 4.59967 12.9323C5.09792 13.2198 5.61592 13.4729 6.15992 13.6804C6.19517 13.694 6.21192 13.7345 6.19442 13.7689C5.90042 14.3548 5.55742 14.9119 5.17292 15.4404C5.15617 15.4618 5.12867 15.4716 5.10267 15.4636C3.47642 14.955 1.81917 14.188 0.108676 12.9242C0.0944256 12.9132 0.0841756 12.8956 0.0826756 12.8772C-0.265824 9.12387 0.444425 5.32351 3.03717 1.42732C3.04342 1.417 3.05292 1.40895 3.06392 1.40417C4.33967 0.815052 5.70642 0.381638 7.13491 0.134117C7.16091 0.130092 7.18691 0.142167 7.20041 0.165309C7.37691 0.479741 7.57866 0.88297 7.71516 1.2125C9.22091 0.981073 10.7502 0.981073 12.2874 1.2125C12.4239 0.890013 12.6187 0.479741 12.7944 0.165309C12.8007 0.153828 12.8104 0.14463 12.8221 0.139029C12.8339 0.133427 12.8471 0.131708 12.8599 0.134117C14.2892 0.382393 15.6559 0.815807 16.9306 1.40417C16.9419 1.40895 16.9511 1.417 16.9566 1.42807ZM8.48066 8.56443C8.49641 7.45486 7.69241 6.53672 6.68317 6.53672C5.68217 6.53672 4.88592 7.44681 4.88592 8.56443C4.88592 9.6818 5.69792 10.5919 6.68317 10.5919C7.68441 10.5919 8.48066 9.6818 8.48066 8.56443ZM15.1262 8.56443C15.1419 7.45486 14.3379 6.53672 13.3289 6.53672C12.3277 6.53672 11.5314 7.44681 11.5314 8.56443C11.5314 9.6818 12.3434 10.5919 13.3289 10.5919C14.3379 10.5919 15.1262 9.6818 15.1262 8.56443Z" fill="#325FEB"/>
</svg>
