<svg width="166" height="34" viewBox="0 0 166 34" fill="none" xmlns="http://www.w3.org/2000/svg">
<g id="Pagedone Logo">
<g id="Pagedone">
<path d="M47.71 25.5229V7.7998H55.0832C55.2567 7.7998 55.4797 7.80801 55.7524 7.82442C56.025 7.83263 56.2769 7.85724 56.5083 7.89827C57.5409 8.05416 58.3918 8.39468 59.061 8.9198C59.7384 9.44493 60.2382 10.1095 60.5604 10.9137C60.8909 11.7095 61.0561 12.5957 61.0561 13.5721C61.0561 14.5403 60.8909 15.4265 60.5604 16.2306C60.23 17.0265 59.726 17.687 59.0486 18.2121C58.3795 18.7372 57.5327 19.0778 56.5083 19.2337C56.2769 19.2665 56.0208 19.2911 55.74 19.3075C55.4673 19.3239 55.2484 19.3321 55.0832 19.3321H50.6964V25.5229H47.71ZM50.6964 16.5629H54.9593C55.1245 16.5629 55.3104 16.5547 55.5169 16.5383C55.7234 16.5219 55.9134 16.489 56.0869 16.4398C56.5826 16.3167 56.9709 16.0993 57.2518 15.7875C57.5409 15.4757 57.7433 15.1229 57.859 14.729C57.9829 14.3352 58.0449 13.9495 58.0449 13.5721C58.0449 13.1947 57.9829 12.809 57.859 12.4152C57.7433 12.0131 57.5409 11.6562 57.2518 11.3444C56.9709 11.0326 56.5826 10.8152 56.0869 10.6921C55.9134 10.6429 55.7234 10.6142 55.5169 10.606C55.3104 10.5895 55.1245 10.5813 54.9593 10.5813H50.6964V16.5629Z" fill="#FDFDFD"/>
<path d="M66.6945 25.8921C65.7279 25.8921 64.91 25.7116 64.2409 25.3506C63.5717 24.9813 63.0636 24.4931 62.7166 23.886C62.3779 23.2788 62.2086 22.6101 62.2086 21.8798C62.2086 21.2398 62.316 20.6654 62.5308 20.1567C62.7456 19.6398 63.076 19.1967 63.5221 18.8275C63.9682 18.4501 64.5465 18.1424 65.257 17.9044C65.794 17.7321 66.4218 17.5762 67.1406 17.4367C67.8676 17.2972 68.6524 17.1701 69.495 17.0552C70.346 16.9321 71.2341 16.8008 72.1593 16.6613L71.0936 17.2644C71.1019 16.3454 70.8953 15.6685 70.474 15.2337C70.0527 14.7988 69.3422 14.5813 68.3426 14.5813C67.7395 14.5813 67.1571 14.7208 66.5953 14.9998C66.0336 15.2788 65.6411 15.7588 65.4181 16.4398L62.6919 15.5906C63.0223 14.4665 63.6502 13.5639 64.5754 12.8829C65.509 12.2019 66.7647 11.8613 68.3426 11.8613C69.5322 11.8613 70.5773 12.0542 71.4778 12.4398C72.3865 12.8254 73.0598 13.4572 73.4977 14.3352C73.7372 14.8029 73.8818 15.2829 73.9314 15.7752C73.9809 16.2593 74.0057 16.7885 74.0057 17.3629V25.5229H71.391V22.6429L71.8247 23.1106C71.2217 24.0706 70.5153 24.7762 69.7057 25.2275C68.9044 25.6706 67.9006 25.8921 66.6945 25.8921ZM67.2893 23.529C67.9667 23.529 68.545 23.4101 69.0242 23.1721C69.5033 22.9342 69.8833 22.6429 70.1642 22.2983C70.4534 21.9537 70.6475 21.6295 70.7466 21.326C70.9036 20.9485 70.9903 20.5178 71.0069 20.0337C71.0317 19.5413 71.044 19.1434 71.044 18.8398L71.9611 19.1106C71.0606 19.2501 70.2881 19.3731 69.6438 19.4798C68.9994 19.5865 68.4459 19.689 67.9832 19.7875C67.5206 19.8778 67.1117 19.9803 66.7564 20.0952C66.4094 20.2183 66.1162 20.3619 65.8766 20.526C65.637 20.6901 65.4511 20.8788 65.319 21.0921C65.195 21.3054 65.1331 21.5557 65.1331 21.8429C65.1331 22.1711 65.2157 22.4624 65.3809 22.7167C65.5461 22.9629 65.7857 23.1598 66.0996 23.3075C66.4218 23.4552 66.8184 23.529 67.2893 23.529Z" fill="#FDFDFD"/>
<path d="M82.61 31.7998C81.8665 31.7998 81.1519 31.6849 80.4662 31.4552C79.7888 31.2254 79.1774 30.8931 78.6322 30.4583C78.0869 30.0316 77.6408 29.5147 77.2939 28.9075L80.0449 27.5537C80.301 28.0378 80.6603 28.3947 81.123 28.6244C81.5939 28.8624 82.0937 28.9813 82.6224 28.9813C83.242 28.9813 83.7955 28.8706 84.2829 28.649C84.7704 28.4357 85.1462 28.1157 85.4106 27.689C85.6832 27.2706 85.8113 26.7454 85.7948 26.1137V22.3352H86.1665V12.2306H88.7812V26.1629C88.7812 26.4993 88.7647 26.8193 88.7317 27.1229C88.7069 27.4347 88.6614 27.7383 88.5953 28.0337C88.3971 28.8952 88.017 29.6008 87.4553 30.1506C86.8935 30.7085 86.1954 31.1229 85.361 31.3937C84.5349 31.6644 83.6179 31.7998 82.61 31.7998ZM82.3498 25.8921C81.1188 25.8921 80.0449 25.5844 79.1279 24.969C78.2109 24.3537 77.5004 23.5167 76.9965 22.4583C76.4925 21.3998 76.2405 20.206 76.2405 18.8767C76.2405 17.5311 76.4925 16.3331 76.9965 15.2829C77.5087 14.2244 78.2315 13.3916 79.165 12.7844C80.0986 12.169 81.1973 11.8613 82.4613 11.8613C83.7336 11.8613 84.7993 12.169 85.6584 12.7844C86.5259 13.3916 87.1827 14.2244 87.6288 15.2829C88.0749 16.3413 88.2979 17.5393 88.2979 18.8767C88.2979 20.1978 88.0749 21.3916 87.6288 22.4583C87.1827 23.5167 86.5176 24.3537 85.6337 24.969C84.7497 25.5844 83.6551 25.8921 82.3498 25.8921ZM82.8083 23.2337C83.6096 23.2337 84.254 23.0531 84.7414 22.6921C85.2371 22.3229 85.5965 21.8101 85.8195 21.1537C86.0509 20.4972 86.1665 19.7383 86.1665 18.8767C86.1665 18.007 86.0509 17.248 85.8195 16.5998C85.5965 15.9434 85.2454 15.4347 84.7662 15.0737C84.2871 14.7044 83.6675 14.5198 82.9074 14.5198C82.1061 14.5198 81.4452 14.7167 80.9247 15.1106C80.4042 15.4962 80.0201 16.0213 79.7723 16.686C79.5244 17.3424 79.4005 18.0726 79.4005 18.8767C79.4005 19.689 79.5203 20.4275 79.7599 21.0921C80.0077 21.7485 80.3836 22.2695 80.8875 22.6552C81.3915 23.0408 82.0317 23.2337 82.8083 23.2337Z" fill="#FDFDFD"/>
<path d="M98.0928 25.8921C96.738 25.8921 95.5483 25.6008 94.5239 25.0183C93.4995 24.4357 92.6982 23.6275 92.1199 22.5937C91.5499 21.5598 91.2648 20.3701 91.2648 19.0244C91.2648 17.5721 91.5457 16.3126 92.1075 15.246C92.6693 14.1711 93.45 13.3383 94.4496 12.7475C95.4492 12.1567 96.6058 11.8613 97.9193 11.8613C99.3072 11.8613 100.484 12.1854 101.451 12.8337C102.426 13.4737 103.149 14.3803 103.62 15.5537C104.091 16.727 104.268 18.1095 104.152 19.7013H101.191V18.6183C101.183 17.1742 100.926 16.1198 100.423 15.4552C99.9186 14.7906 99.1255 14.4583 98.0433 14.4583C96.8206 14.4583 95.9118 14.8357 95.317 15.5906C94.7222 16.3372 94.4248 17.4326 94.4248 18.8767C94.4248 20.2224 94.7222 21.2644 95.317 22.0029C95.9118 22.7413 96.7793 23.1106 97.9193 23.1106C98.6546 23.1106 99.2866 22.9506 99.8153 22.6306C100.352 22.3024 100.765 21.8306 101.055 21.2152L104.004 22.1013C103.492 23.2993 102.699 24.2306 101.625 24.8952C100.559 25.5598 99.3816 25.8921 98.0928 25.8921ZM93.483 19.7013V17.4613H102.69V19.7013H93.483Z" fill="#FDFDFD"/>
<path d="M112.035 25.8921C110.804 25.8921 109.73 25.5844 108.813 24.969C107.896 24.3537 107.186 23.5167 106.682 22.4583C106.178 21.3998 105.926 20.206 105.926 18.8767C105.926 17.5311 106.178 16.3331 106.682 15.2829C107.194 14.2244 107.917 13.3916 108.851 12.7844C109.784 12.169 110.883 11.8613 112.147 11.8613C113.419 11.8613 114.485 12.169 115.344 12.7844C116.211 13.3916 116.868 14.2244 117.314 15.2829C117.76 16.3413 117.983 17.5393 117.983 18.8767C117.983 20.1978 117.76 21.3916 117.314 22.4583C116.868 23.5167 116.203 24.3537 115.319 24.969C114.435 25.5844 113.341 25.8921 112.035 25.8921ZM112.494 23.2337C113.295 23.2337 113.94 23.0531 114.427 22.6921C114.923 22.3229 115.282 21.8101 115.505 21.1537C115.736 20.4972 115.852 19.7383 115.852 18.8767C115.852 18.007 115.736 17.248 115.505 16.5998C115.282 15.9434 114.931 15.4347 114.452 15.0737C113.973 14.7044 113.353 14.5198 112.593 14.5198C111.792 14.5198 111.131 14.7167 110.61 15.1106C110.09 15.4962 109.706 16.0213 109.458 16.686C109.21 17.3424 109.086 18.0726 109.086 18.8767C109.086 19.689 109.206 20.4275 109.445 21.0921C109.693 21.7485 110.069 22.2695 110.573 22.6552C111.077 23.0408 111.717 23.2337 112.494 23.2337ZM115.852 25.5229V16.1937H115.48V7.7998H118.492V25.5229H115.852Z" fill="#FDFDFD"/>
<path d="M127.629 25.8921C126.291 25.8921 125.122 25.5926 124.122 24.9937C123.123 24.3947 122.346 23.5701 121.792 22.5198C121.247 21.4613 120.975 20.247 120.975 18.8767C120.975 17.4819 121.255 16.2593 121.817 15.209C122.379 14.1588 123.16 13.3383 124.159 12.7475C125.159 12.1567 126.316 11.8613 127.629 11.8613C128.976 11.8613 130.149 12.1608 131.148 12.7598C132.148 13.3588 132.925 14.1875 133.478 15.246C134.032 16.2962 134.308 17.5065 134.308 18.8767C134.308 20.2552 134.027 21.4737 133.466 22.5321C132.912 23.5824 132.136 24.407 131.136 25.006C130.136 25.5967 128.967 25.8921 127.629 25.8921ZM127.629 23.1106C128.819 23.1106 129.703 22.7167 130.281 21.929C130.859 21.1413 131.148 20.1239 131.148 18.8767C131.148 17.5885 130.855 16.5629 130.269 15.7998C129.682 15.0285 128.802 14.6429 127.629 14.6429C126.828 14.6429 126.167 14.8234 125.646 15.1844C125.134 15.5372 124.754 16.0337 124.506 16.6737C124.258 17.3054 124.135 18.0398 124.135 18.8767C124.135 20.1649 124.428 21.1947 125.014 21.966C125.609 22.729 126.481 23.1106 127.629 23.1106Z" fill="#FDFDFD"/>
<path d="M146.048 25.5229V19.1229C146.048 18.7044 146.019 18.2408 145.961 17.7321C145.903 17.2234 145.767 16.7352 145.552 16.2675C145.345 15.7916 145.031 15.4019 144.61 15.0983C144.197 14.7947 143.635 14.6429 142.925 14.6429C142.545 14.6429 142.169 14.7044 141.797 14.8275C141.425 14.9506 141.087 15.1639 140.781 15.4675C140.484 15.7629 140.244 16.1731 140.062 16.6983C139.881 17.2152 139.79 17.8798 139.79 18.6921L138.018 17.9413C138.018 16.809 138.237 15.7834 138.674 14.8644C139.121 13.9454 139.773 13.2152 140.632 12.6737C141.492 12.1239 142.549 11.849 143.805 11.849C144.796 11.849 145.614 12.0131 146.258 12.3413C146.903 12.6695 147.415 13.088 147.795 13.5967C148.175 14.1054 148.456 14.647 148.638 15.2213C148.819 15.7957 148.935 16.3413 148.985 16.8583C149.042 17.367 149.071 17.7813 149.071 18.1013V25.5229H146.048ZM136.766 25.5229V12.2306H139.43V16.3537H139.79V25.5229H136.766Z" fill="#FDFDFD"/>
<path d="M157.924 25.8921C156.569 25.8921 155.379 25.6008 154.355 25.0183C153.33 24.4357 152.529 23.6275 151.951 22.5937C151.381 21.5598 151.096 20.3701 151.096 19.0244C151.096 17.5721 151.377 16.3126 151.938 15.246C152.5 14.1711 153.281 13.3383 154.281 12.7475C155.28 12.1567 156.437 11.8613 157.75 11.8613C159.138 11.8613 160.315 12.1854 161.282 12.8337C162.257 13.4737 162.98 14.3803 163.451 15.5537C163.921 16.727 164.099 18.1095 163.983 19.7013H161.022V18.6183C161.014 17.1742 160.757 16.1198 160.253 15.4552C159.75 14.7906 158.956 14.4583 157.874 14.4583C156.652 14.4583 155.743 14.8357 155.148 15.5906C154.553 16.3372 154.256 17.4326 154.256 18.8767C154.256 20.2224 154.553 21.2644 155.148 22.0029C155.743 22.7413 156.61 23.1106 157.75 23.1106C158.486 23.1106 159.118 22.9506 159.646 22.6306C160.183 22.3024 160.596 21.8306 160.885 21.2152L163.835 22.1013C163.323 23.2993 162.529 24.2306 161.455 24.8952C160.39 25.5598 159.213 25.8921 157.924 25.8921ZM153.314 19.7013V17.4613H162.521V19.7013H153.314Z" fill="#FDFDFD"/>
</g>
<g id="Union">
<path d="M25.3903 12.6939C26.0298 13.3061 26.046 14.3147 25.4265 14.9466L19.6358 20.8538C19.0163 21.4858 17.9958 21.5018 17.3563 20.8896C16.7168 20.2774 16.7006 19.2688 17.3201 18.6369L23.1108 12.7297C23.7302 12.0977 24.7508 12.0817 25.3903 12.6939Z" fill="url(#paint0_linear_604_1540)"/>
<path fill-rule="evenodd" clip-rule="evenodd" d="M0.988281 5.34654C0.988281 2.83545 3.04813 0.799805 5.58908 0.799805H22.4007V0.801045C29.8076 0.899657 35.7812 6.86409 35.7812 14.2074C35.7812 21.6121 29.707 27.6149 22.2142 27.6149C19.5426 27.6149 17.0513 26.8518 14.9515 25.534L7.53745 32.7055C5.09813 35.065 0.988281 33.3571 0.988281 29.9839V5.34654ZM12.4395 23.5053C10.0912 21.0948 8.64721 17.8177 8.64721 14.2074C8.64721 13.3275 9.36896 12.6142 10.2593 12.6142C11.1496 12.6142 11.8714 13.3275 11.8714 14.2074C11.8714 19.8524 16.502 24.4286 22.2142 24.4286C27.9264 24.4286 32.557 19.8524 32.557 14.2074C32.557 8.56229 27.9264 3.98606 22.2142 3.98606H5.58908C4.82878 3.98606 4.21243 4.59517 4.21243 5.34654V29.9839C4.21243 30.5349 4.88376 30.8138 5.28221 30.4284L12.4395 23.5053Z" fill="url(#paint1_linear_604_1540)"/>
</g>
</g>
<defs>
<linearGradient id="paint0_linear_604_1540" x1="35.7812" y1="2.69043" x2="1.90754" y2="34.0566" gradientUnits="userSpaceOnUse">
<stop stop-color="#7C3AED"/>
<stop offset="0.993738" stop-color="#4F46E5"/>
</linearGradient>
<linearGradient id="paint1_linear_604_1540" x1="35.7812" y1="2.69043" x2="1.90754" y2="34.0566" gradientUnits="userSpaceOnUse">
<stop stop-color="#7C3AED"/>
<stop offset="0.993738" stop-color="#4F46E5"/>
</linearGradient>
</defs>
</svg>
