<svg width="20" height="21" viewBox="0 0 20 21" fill="none" xmlns="http://www.w3.org/2000/svg">
<g id="Social Media">
<g id="Logo">
<path d="M3.47412 16.5887L4.38653 13.1992C3.6507 11.8788 3.41691 10.338 3.72808 8.85955C4.03925 7.3811 4.8745 6.06416 6.08056 5.1504C7.28663 4.23663 8.7826 3.78734 10.294 3.88495C11.8053 3.98257 13.2307 4.62055 14.3086 5.68183C15.3864 6.74311 16.0444 8.1565 16.1618 9.66263C16.2792 11.1688 15.8482 12.6666 14.9478 13.8813C14.0474 15.0961 12.738 15.9462 11.2599 16.2756C9.78184 16.6051 8.23422 16.3919 6.90105 15.6751L3.47412 16.5887ZM7.06629 14.4067L7.27822 14.5321C8.24387 15.103 9.37173 15.3392 10.486 15.204C11.6004 15.0688 12.6385 14.5697 13.4388 13.7845C14.239 12.9993 14.7564 11.9721 14.9103 10.863C15.0641 9.75391 14.8458 8.62518 14.2894 7.65274C13.733 6.68029 12.8697 5.91875 11.8341 5.48679C10.7985 5.05483 9.64866 4.97671 8.56387 5.26461C7.47909 5.55251 6.52025 6.19026 5.83677 7.07847C5.1533 7.96668 4.78359 9.05545 4.78526 10.1751C4.78435 11.1035 5.04176 12.0139 5.52884 12.8051L5.66175 13.0236L5.15166 14.9155L7.06629 14.4067Z" fill="#325FEB"/>
<path fill-rule="evenodd" clip-rule="evenodd" d="M12.2102 11.0455C12.0859 10.9455 11.9404 10.8752 11.7848 10.8398C11.6292 10.8044 11.4675 10.8049 11.3121 10.8412C11.0786 10.938 10.9278 11.3035 10.7769 11.4862C10.7451 11.53 10.6983 11.5607 10.6454 11.5726C10.5925 11.5845 10.5371 11.5767 10.4895 11.5507C9.6347 11.2167 8.91818 10.6043 8.45635 9.81291C8.41696 9.76353 8.39832 9.70082 8.40435 9.638C8.41038 9.57518 8.44061 9.51714 8.48868 9.47611C8.65695 9.30995 8.7805 9.10415 8.8479 8.87774C8.86286 8.62801 8.8055 8.37925 8.68266 8.16114C8.58769 7.85535 8.40695 7.58306 8.16179 7.37645C8.03535 7.31973 7.89515 7.30071 7.75811 7.32169C7.62107 7.34267 7.49305 7.40275 7.38948 7.49469C7.20968 7.64942 7.06697 7.84241 6.97185 8.05945C6.87673 8.27648 6.83164 8.51203 6.83988 8.74875C6.84043 8.88169 6.85732 9.01405 6.89017 9.14289C6.97358 9.45243 7.10186 9.74816 7.27094 10.0207C7.39293 10.2295 7.52603 10.4317 7.66967 10.6263C8.13649 11.2655 8.72329 11.8082 9.3975 12.2243C9.73583 12.4357 10.0974 12.6077 10.4751 12.7367C10.8675 12.9141 11.3008 12.9822 11.7288 12.9337C11.9727 12.8969 12.2038 12.8009 12.4017 12.654C12.5997 12.5072 12.7584 12.3141 12.8639 12.0917C12.926 11.9574 12.9448 11.8072 12.9178 11.6618C12.8532 11.3644 12.4544 11.1888 12.2102 11.0455Z" fill="#325FEB"/>
</g>
</g>
</svg>
