<svg width="25" height="24" viewBox="0 0 25 24" fill="none" xmlns="http://www.w3.org/2000/svg">
<g id="document / 24 / Outline">
<path id="Vector" d="M21.5 8.94C21.4896 8.84813 21.4695 8.75763 21.44 8.67V8.58C21.3919 8.47718 21.3278 8.38267 21.25 8.3V8.3L15.25 2.3C15.1673 2.22222 15.0728 2.15808 14.97 2.11C14.9402 2.10576 14.9099 2.10576 14.88 2.11C14.7784 2.05174 14.6662 2.01434 14.55 2H10.5C9.70435 2 8.94129 2.31607 8.37868 2.87868C7.81607 3.44129 7.5 4.20435 7.5 5V6H6.5C5.70435 6 4.94129 6.31607 4.37868 6.87868C3.81607 7.44129 3.5 8.20435 3.5 9V19C3.5 19.7956 3.81607 20.5587 4.37868 21.1213C4.94129 21.6839 5.70435 22 6.5 22H14.5C15.2956 22 16.0587 21.6839 16.6213 21.1213C17.1839 20.5587 17.5 19.7956 17.5 19V18H18.5C19.2956 18 20.0587 17.6839 20.6213 17.1213C21.1839 16.5587 21.5 15.7956 21.5 15V9C21.5 9 21.5 9 21.5 8.94ZM15.5 5.41L18.09 8H16.5C16.2348 8 15.9804 7.89464 15.7929 7.70711C15.6054 7.51957 15.5 7.26522 15.5 7V5.41ZM15.5 19C15.5 19.2652 15.3946 19.5196 15.2071 19.7071C15.0196 19.8946 14.7652 20 14.5 20H6.5C6.23478 20 5.98043 19.8946 5.79289 19.7071C5.60536 19.5196 5.5 19.2652 5.5 19V9C5.5 8.73478 5.60536 8.48043 5.79289 8.29289C5.98043 8.10536 6.23478 8 6.5 8H7.5V15C7.5 15.7956 7.81607 16.5587 8.37868 17.1213C8.94129 17.6839 9.70435 18 10.5 18H15.5V19ZM19.5 15C19.5 15.2652 19.3946 15.5196 19.2071 15.7071C19.0196 15.8946 18.7652 16 18.5 16H10.5C10.2348 16 9.98043 15.8946 9.79289 15.7071C9.60536 15.5196 9.5 15.2652 9.5 15V5C9.5 4.73478 9.60536 4.48043 9.79289 4.29289C9.98043 4.10536 10.2348 4 10.5 4H13.5V7C13.5 7.79565 13.8161 8.55871 14.3787 9.12132C14.9413 9.68393 15.7044 10 16.5 10H19.5V15Z" fill="white"/>
</g>
</svg>
